<svg width="18" height="18" viewBox="0 0 18 18" fill="none" xmlns="http://www.w3.org/2000/svg">
<g clip-path="url(#clip0_804_351)">
<path d="M15.9304 13.6378C15.6634 14.2492 15.3472 14.812 14.981 15.3294C14.4817 16.0348 14.073 16.5231 13.7579 16.7942C13.2696 17.2392 12.7464 17.4672 12.1861 17.4801C11.7838 17.4801 11.2988 17.3667 10.7341 17.1366C10.1676 16.9076 9.64698 16.7942 9.17095 16.7942C8.6717 16.7942 8.13626 16.9076 7.56354 17.1366C6.98995 17.3667 6.52787 17.4866 6.17458 17.4985C5.63729 17.5212 5.10174 17.2868 4.56718 16.7942C4.22599 16.4993 3.79923 15.9938 3.28799 15.2776C2.73947 14.5128 2.28851 13.6259 1.93522 12.6149C1.55686 11.5228 1.36719 10.4652 1.36719 9.4414C1.36719 8.26861 1.62292 7.2571 2.13514 6.40945C2.5377 5.72859 3.07325 5.19151 3.74352 4.79723C4.4138 4.40296 5.13804 4.20204 5.91798 4.18918C6.34474 4.18918 6.90438 4.31999 7.59984 4.57709C8.29334 4.83504 8.73863 4.96585 8.93386 4.96585C9.07982 4.96585 9.57449 4.8129 10.4131 4.50795C11.2061 4.22515 11.8754 4.10806 12.4237 4.15418C13.9095 4.27301 15.0257 4.8534 15.768 5.89905C14.4392 6.6969 13.7819 7.81438 13.795 9.24793C13.807 10.3645 14.2158 11.2937 15.0191 12.0315C15.3832 12.374 15.7898 12.6386 16.2422 12.8266C16.1441 13.1085 16.0405 13.3786 15.9304 13.6378V13.6378ZM12.5229 0.3501C12.5229 1.2253 12.2002 2.04247 11.5571 2.79884C10.781 3.69801 9.84221 4.21759 8.8242 4.1356C8.81123 4.03061 8.80371 3.9201 8.80371 3.80398C8.80371 2.96379 9.1728 2.06462 9.82826 1.32942C10.1555 0.95718 10.5717 0.647666 11.0764 0.400761C11.58 0.15754 12.0563 0.0230337 12.5044 0C12.5174 0.117001 12.5229 0.234008 12.5229 0.350088V0.3501Z" fill="black"/>
</g>
<defs>
<clipPath id="clip0_804_351">
<rect width="17.5" height="17.5" fill="white"/>
</clipPath>
</defs>
</svg>
