<svg width="18" height="18" viewBox="0 0 18 18" fill="none" xmlns="http://www.w3.org/2000/svg">
<g clip-path="url(#clip0_804_292)">
<path fill-rule="evenodd" clip-rule="evenodd" d="M17.9213 9.20468C17.9213 8.5665 17.864 7.95286 17.7576 7.36377H9.28125V10.8451H14.1249C13.9163 11.9701 13.2822 12.9233 12.329 13.5615V15.8197H15.2376C16.9394 14.2529 17.9213 11.9456 17.9213 9.20468Z" fill="#4285F4"/>
<path fill-rule="evenodd" clip-rule="evenodd" d="M9.2815 18C11.7115 18 13.7488 17.1941 15.2379 15.8195L12.3292 13.5613C11.5233 14.1013 10.4924 14.4204 9.2815 14.4204C6.93741 14.4204 4.95332 12.8372 4.24559 10.71H1.23877V13.0418C2.71968 15.9831 5.76332 18 9.2815 18Z" fill="#34A853"/>
<path fill-rule="evenodd" clip-rule="evenodd" d="M4.24534 10.7098C4.06534 10.1698 3.96307 9.59301 3.96307 8.99983C3.96307 8.40665 4.06534 7.82983 4.24534 7.28983V4.95801H1.23852C0.628977 6.17301 0.28125 7.54755 0.28125 8.99983C0.28125 10.4521 0.628977 11.8266 1.23852 13.0416L4.24534 10.7098Z" fill="#FBBC05"/>
<path fill-rule="evenodd" clip-rule="evenodd" d="M9.2815 3.57955C10.6029 3.57955 11.7892 4.03364 12.722 4.92546L15.3033 2.34409C13.7447 0.891819 11.7074 0 9.2815 0C5.76332 0 2.71968 2.01682 1.23877 4.95818L4.24559 7.29C4.95332 5.16273 6.93741 3.57955 9.2815 3.57955Z" fill="#EA4335"/>
</g>
<defs>
<clipPath id="clip0_804_292">
<rect width="18" height="18" fill="white"/>
</clipPath>
</defs>
</svg>
