<svg width="233" height="68" viewBox="0 0 233 68" fill="none" xmlns="http://www.w3.org/2000/svg">
<path d="M19.1999 51.04C15.1465 51.04 11.9732 49.8934 9.67988 47.6C7.38655 45.3067 6.23988 42.1867 6.23988 38.24V3.8147e-05H21.5999V36.8C21.5999 37.3334 21.7866 37.7867 22.1599 38.16C22.5332 38.48 22.9866 38.64 23.5199 38.64H32.5599V51.04H19.1999ZM-0.000117153 21.28V9.60004H32.5599V21.28H-0.000117153ZM36.888 51.04V22.48C36.888 18.5334 38.0347 15.4134 40.328 13.12C42.6213 10.8267 45.8213 9.68004 49.928 9.68004H63.208V21.28H55.288C54.3813 21.28 53.6347 21.5734 53.048 22.16C52.5147 22.6934 52.248 23.4134 52.248 24.32V51.04H36.888ZM79.7511 67.28V50.88C76.9778 50.0267 74.5511 48.7734 72.4711 47.12C70.4445 45.4134 68.8711 43.4134 67.7511 41.12C66.6845 38.7734 66.1511 36.2134 66.1511 33.44V9.60004H81.4311V32.32C81.4311 33.3334 81.6711 34.2934 82.1511 35.2C82.6311 36.1067 83.3245 36.8534 84.2311 37.44C85.1378 38.0267 86.2045 38.32 87.4311 38.32C88.7111 38.32 89.7778 38.0267 90.6311 37.44C91.5378 36.8534 92.2045 36.1067 92.6311 35.2C93.1111 34.2934 93.3511 33.3334 93.3511 32.32V9.60004H108.711V33.44C108.711 36.2134 108.178 38.8 107.111 41.2C106.044 43.5467 104.498 45.5734 102.471 47.28C100.444 48.9334 97.9911 50.16 95.1111 50.96V67.28H79.7511ZM113.764 35.52V25.52H136.404V35.52H113.764ZM163.227 52C159.067 52 155.253 51.0934 151.787 49.28C148.373 47.4667 145.627 44.9334 143.547 41.68C141.52 38.3734 140.507 34.5867 140.507 30.32C140.507 26.0534 141.52 22.2934 143.547 19.04C145.627 15.7867 148.4 13.2534 151.867 11.44C155.333 9.57337 159.147 8.64004 163.307 8.64004C167.467 8.64004 171.253 9.57337 174.667 11.44C178.08 13.2534 180.8 15.7867 182.827 19.04C184.853 22.2934 185.867 26.0534 185.867 30.32C185.867 34.5867 184.853 38.3734 182.827 41.68C180.8 44.9334 178.053 47.4667 174.587 49.28C171.173 51.0934 167.387 52 163.227 52ZM163.227 38.24C164.667 38.24 165.947 37.8934 167.067 37.2C168.187 36.5067 169.04 35.5734 169.627 34.4C170.267 33.1734 170.587 31.7867 170.587 30.24C170.587 28.6934 170.267 27.3334 169.627 26.16C169.04 24.9867 168.187 24.0534 167.067 23.36C165.947 22.6667 164.667 22.32 163.227 22.32C161.787 22.32 160.507 22.6667 159.387 23.36C158.267 24.0534 157.387 24.9867 156.747 26.16C156.107 27.3334 155.787 28.6934 155.787 30.24C155.787 31.7867 156.107 33.1734 156.747 34.4C157.387 35.5734 158.267 36.5067 159.387 37.2C160.507 37.8934 161.787 38.24 163.227 38.24ZM190.179 51.04V27.2C190.179 23.6267 191.086 20.4534 192.899 17.68C194.713 14.8534 197.246 12.64 200.499 11.04C203.753 9.44004 207.539 8.64004 211.859 8.64004C216.179 8.64004 219.913 9.44004 223.059 11.04C226.206 12.64 228.606 14.8534 230.259 17.68C231.966 20.4534 232.819 23.6267 232.819 27.2V51.04H217.459V28.16C217.459 27.1467 217.219 26.2134 216.739 25.36C216.259 24.4534 215.566 23.7334 214.659 23.2C213.806 22.6134 212.766 22.32 211.539 22.32C210.313 22.32 209.219 22.6134 208.259 23.2C207.353 23.7334 206.659 24.4534 206.179 25.36C205.699 26.2134 205.459 27.1467 205.459 28.16V51.04H190.179Z" fill="#E4E2DD"/>
</svg>
