<svg width="181" height="52" viewBox="0 0 181 52" fill="none" xmlns="http://www.w3.org/2000/svg">
<rect x="1.21914" y="1.21914" width="178.562" height="35.5617" rx="17.7809" fill="white"/>
<rect x="1.21914" y="1.21914" width="178.562" height="35.5617" rx="17.7809" stroke="#DDE0E8" stroke-width="2.43828"/>
<path d="M23 21L30 9V17H35L28 29V21H23Z" fill="#FFC800" stroke="#FFC800" stroke-width="2" stroke-linejoin="round"/>
<path d="M48.3398 17.5044H49.1133C49.4141 17.5044 49.6629 17.4525 49.8599 17.3486C50.0604 17.2448 50.209 17.1016 50.3057 16.9189C50.4023 16.7363 50.4507 16.5269 50.4507 16.2905C50.4507 16.0435 50.4059 15.8322 50.3164 15.6567C50.2305 15.4777 50.098 15.3398 49.9189 15.2432C49.7435 15.1465 49.5197 15.0981 49.2476 15.0981C49.0184 15.0981 48.8107 15.1447 48.6245 15.2378C48.4419 15.3273 48.2969 15.4562 48.1895 15.6245C48.082 15.7892 48.0283 15.9862 48.0283 16.2153H46.7285C46.7285 15.8 46.8377 15.4312 47.0562 15.1089C47.2746 14.7866 47.5718 14.5342 47.9478 14.3516C48.3273 14.1654 48.7534 14.0723 49.2261 14.0723C49.731 14.0723 50.1714 14.1564 50.5474 14.3247C50.9269 14.4894 51.2223 14.7365 51.4336 15.0659C51.6449 15.3953 51.7505 15.8035 51.7505 16.2905C51.7505 16.5125 51.6986 16.7381 51.5947 16.9673C51.4909 17.1965 51.3369 17.4059 51.1328 17.5957C50.9287 17.7819 50.6745 17.9341 50.3701 18.0522C50.0658 18.1668 49.7131 18.2241 49.312 18.2241H48.3398V17.5044ZM48.3398 18.5142V17.8052H49.312C49.7703 17.8052 50.1606 17.8589 50.4829 17.9663C50.8088 18.0737 51.0737 18.2223 51.2778 18.4121C51.4819 18.5983 51.6305 18.8114 51.7236 19.0513C51.8203 19.2912 51.8687 19.5454 51.8687 19.814C51.8687 20.1792 51.8024 20.505 51.6699 20.7915C51.541 21.0744 51.3566 21.3143 51.1167 21.5112C50.8768 21.7082 50.5957 21.8568 50.2734 21.957C49.9548 22.0573 49.6074 22.1074 49.2314 22.1074C48.8949 22.1074 48.5726 22.0609 48.2646 21.9678C47.9567 21.8747 47.681 21.7368 47.4375 21.5542C47.194 21.368 47.0007 21.137 46.8574 20.8613C46.7178 20.582 46.6479 20.2598 46.6479 19.8945H47.9424C47.9424 20.1273 47.9961 20.3332 48.1035 20.5122C48.2145 20.6877 48.3685 20.8255 48.5654 20.9258C48.766 21.026 48.9951 21.0762 49.2529 21.0762C49.5251 21.0762 49.7596 21.0278 49.9565 20.9312C50.1535 20.8345 50.3039 20.6912 50.4077 20.5015C50.5151 20.3117 50.5688 20.0825 50.5688 19.814C50.5688 19.5096 50.5098 19.2625 50.3916 19.0728C50.2734 18.883 50.1051 18.7433 49.8867 18.6538C49.6683 18.5607 49.4105 18.5142 49.1133 18.5142H48.3398ZM53.237 20.757H62.345V21.703H53.237V20.757ZM57.208 18.623H58.363V21.241H57.208V18.623ZM57.208 14.949H58.22V15.169C58.22 15.6677 58.1173 16.1297 57.912 16.555C57.714 16.973 57.428 17.347 57.054 17.677C56.6873 18.007 56.251 18.282 55.745 18.502C55.239 18.722 54.6816 18.8797 54.073 18.975L53.644 18.062C54.1866 17.9813 54.678 17.853 55.118 17.677C55.558 17.4937 55.932 17.2737 56.24 17.017C56.548 16.7603 56.7863 16.4743 56.955 16.159C57.1236 15.8437 57.208 15.5137 57.208 15.169V14.949ZM57.351 14.949H58.363V15.169C58.363 15.5137 58.4473 15.8437 58.616 16.159C58.7846 16.4743 59.023 16.7603 59.331 17.017C59.639 17.2737 60.013 17.4937 60.453 17.677C60.893 17.853 61.3843 17.9813 61.927 18.062L61.498 18.975C60.8893 18.8797 60.332 18.722 59.826 18.502C59.32 18.282 58.88 18.007 58.506 17.677C58.1393 17.347 57.8533 16.973 57.648 16.555C57.45 16.1297 57.351 15.6677 57.351 15.169V14.949ZM54.051 14.344H61.509V15.279H54.051V14.344ZM57.208 13.035H58.363V14.707H57.208V13.035ZM66.9474 13.717H71.6444V18.469H66.9474V13.717ZM70.5224 14.641H68.0804V17.545H70.5224V14.641ZM73.2944 12.848H74.4384V20.207H73.2944V12.848ZM74.0974 15.84H75.8574V16.797H74.0974V15.84ZM68.0804 21.769H74.8564V22.704H68.0804V21.769ZM68.0804 19.492H69.2354V22.209H68.0804V19.492ZM81.0125 16.665H82.8055V17.611H81.0125V16.665ZM84.4445 12.848H85.5445V22.902H84.4445V12.848ZM82.4315 13.046H83.5095V22.429H82.4315V13.046ZM79.2195 13.629C79.6595 13.629 80.0408 13.7757 80.3635 14.069C80.6935 14.355 80.9465 14.7657 81.1225 15.301C81.2985 15.829 81.3865 16.4633 81.3865 17.204C81.3865 17.9373 81.2985 18.5717 81.1225 19.107C80.9465 19.6423 80.6935 20.053 80.3635 20.339C80.0408 20.625 79.6595 20.768 79.2195 20.768C78.7868 20.768 78.4092 20.625 78.0865 20.339C77.7638 20.053 77.5145 19.6423 77.3385 19.107C77.1625 18.5717 77.0745 17.9373 77.0745 17.204C77.0745 16.4633 77.1625 15.829 77.3385 15.301C77.5145 14.7657 77.7638 14.355 78.0865 14.069C78.4165 13.7757 78.7942 13.629 79.2195 13.629ZM79.2195 14.718C78.9995 14.718 78.8052 14.8133 78.6365 15.004C78.4678 15.1947 78.3395 15.477 78.2515 15.851C78.1635 16.2177 78.1195 16.6687 78.1195 17.204C78.1195 17.7247 78.1635 18.172 78.2515 18.546C78.3395 18.92 78.4678 19.206 78.6365 19.404C78.8052 19.5947 78.9995 19.69 79.2195 19.69C79.4542 19.69 79.6522 19.5947 79.8135 19.404C79.9822 19.206 80.1105 18.92 80.1985 18.546C80.2865 18.172 80.3305 17.7247 80.3305 17.204C80.3305 16.6687 80.2865 16.2177 80.1985 15.851C80.1105 15.477 79.9822 15.1947 79.8135 15.004C79.6522 14.8133 79.4542 14.718 79.2195 14.718ZM97.3079 12.859H98.4519V22.913H97.3079V12.859ZM97.8029 16.687H99.6289V17.644H97.8029V16.687ZM90.4439 13.783H91.4119V16.236H92.3579V13.783H93.2929V20.515H90.4439V13.783ZM91.4119 17.149V19.591H92.3579V17.149H91.4119ZM93.7659 13.783H94.7229V16.236H95.6469V13.783H96.6039V20.515H93.7659V13.783ZM94.7229 17.149V19.591H95.6469V17.149H94.7229ZM100.692 18.359H109.8V19.294H100.692V18.359ZM101.858 21.769H108.876V22.704H101.858V21.769ZM101.858 19.976H103.013V22.154H101.858V19.976ZM101.825 13.134H108.656V15.763H102.98V16.984H101.847V14.938H107.512V14.025H101.825V13.134ZM101.847 16.698H108.854V17.578H101.847V16.698ZM116.778 18.92H117.933V20.57H116.778V18.92ZM121.167 12.859H122.322V22.913H121.167V12.859ZM114.248 21.098L114.105 20.152C114.729 20.152 115.403 20.1483 116.129 20.141C116.863 20.1263 117.611 20.097 118.373 20.053C119.136 20.009 119.873 19.943 120.584 19.855L120.672 20.691C119.932 20.8157 119.184 20.9073 118.428 20.966C117.68 21.0247 116.947 21.0613 116.228 21.076C115.517 21.0907 114.857 21.098 114.248 21.098ZM114.303 14.036H120.386V14.949H114.303V14.036ZM117.339 15.433C117.831 15.433 118.26 15.5137 118.626 15.675C118.993 15.829 119.279 16.0453 119.484 16.324C119.697 16.6027 119.803 16.9327 119.803 17.314C119.803 17.688 119.697 18.018 119.484 18.304C119.279 18.5827 118.993 18.799 118.626 18.953C118.26 19.107 117.831 19.184 117.339 19.184C116.863 19.184 116.437 19.107 116.063 18.953C115.697 18.799 115.411 18.5827 115.205 18.304C115 18.018 114.897 17.688 114.897 17.314C114.897 16.9327 115 16.6027 115.205 16.324C115.411 16.0453 115.697 15.829 116.063 15.675C116.437 15.5137 116.863 15.433 117.339 15.433ZM117.339 16.313C116.943 16.313 116.617 16.4047 116.36 16.588C116.111 16.764 115.986 17.006 115.986 17.314C115.986 17.622 116.111 17.864 116.36 18.04C116.617 18.216 116.943 18.304 117.339 18.304C117.75 18.304 118.08 18.216 118.329 18.04C118.579 17.864 118.703 17.622 118.703 17.314C118.703 17.006 118.579 16.764 118.329 16.588C118.08 16.4047 117.75 16.313 117.339 16.313ZM116.778 12.87H117.933V14.542H116.778V12.87ZM127.17 17.963H128.314V20.174H127.17V17.963ZM131.592 12.859H132.747V20.482H131.592V12.859ZM125.718 21.769H132.989V22.704H125.718V21.769ZM125.718 19.745H126.873V22.022H125.718V19.745ZM124.519 18.348L124.376 17.413C124.992 17.4057 125.663 17.3983 126.389 17.391C127.115 17.3763 127.855 17.3507 128.611 17.314C129.373 17.27 130.107 17.204 130.811 17.116L130.899 17.941C130.18 18.0583 129.443 18.1463 128.688 18.205C127.94 18.2637 127.21 18.3003 126.499 18.315C125.787 18.3297 125.127 18.3407 124.519 18.348ZM129.623 18.744H131.878V19.558H129.623V18.744ZM127.621 13.233C128.119 13.233 128.552 13.3063 128.919 13.453C129.293 13.5997 129.582 13.8087 129.788 14.08C130 14.344 130.107 14.652 130.107 15.004C130.107 15.356 130 15.6677 129.788 15.939C129.582 16.2103 129.293 16.4193 128.919 16.566C128.552 16.7053 128.119 16.775 127.621 16.775C127.137 16.775 126.704 16.7053 126.323 16.566C125.949 16.4193 125.655 16.2103 125.443 15.939C125.237 15.6677 125.135 15.356 125.135 15.004C125.135 14.652 125.237 14.344 125.443 14.08C125.655 13.8087 125.949 13.5997 126.323 13.453C126.704 13.3063 127.137 13.233 127.621 13.233ZM127.621 14.08C127.21 14.08 126.873 14.1643 126.609 14.333C126.352 14.4943 126.224 14.718 126.224 15.004C126.224 15.29 126.352 15.5173 126.609 15.686C126.873 15.8473 127.21 15.928 127.621 15.928C128.031 15.928 128.365 15.8473 128.622 15.686C128.878 15.5173 129.007 15.29 129.007 15.004C129.007 14.8133 128.948 14.652 128.831 14.52C128.713 14.3807 128.552 14.2743 128.347 14.201C128.141 14.1203 127.899 14.08 127.621 14.08ZM141.422 12.848H142.577V22.902H141.422V12.848ZM142.28 16.819H144.095V17.776H142.28V16.819ZM138.826 13.915H139.948C139.948 14.8903 139.797 15.8217 139.497 16.709C139.203 17.589 138.723 18.3993 138.056 19.14C137.396 19.8807 136.516 20.526 135.416 21.076L134.778 20.196C135.687 19.7267 136.439 19.1913 137.033 18.59C137.634 17.9887 138.081 17.314 138.375 16.566C138.675 15.818 138.826 14.9967 138.826 14.102V13.915ZM135.284 13.915H139.42V14.85H135.284V13.915ZM152.286 12.859H153.441V18.249H152.286V12.859ZM146.885 18.733H148.018V19.822H152.308V18.733H153.441V22.781H146.885V18.733ZM148.018 20.713V21.857H152.308V20.713H148.018ZM148.018 13.31C148.531 13.31 148.99 13.409 149.393 13.607C149.796 13.805 150.112 14.08 150.339 14.432C150.574 14.7767 150.691 15.18 150.691 15.642C150.691 16.104 150.574 16.511 150.339 16.863C150.112 17.215 149.796 17.49 149.393 17.688C148.99 17.886 148.531 17.985 148.018 17.985C147.505 17.985 147.046 17.886 146.643 17.688C146.24 17.49 145.921 17.215 145.686 16.863C145.459 16.511 145.345 16.104 145.345 15.642C145.345 15.18 145.459 14.7767 145.686 14.432C145.921 14.08 146.24 13.805 146.643 13.607C147.046 13.409 147.505 13.31 148.018 13.31ZM148.018 14.256C147.717 14.256 147.45 14.3147 147.215 14.432C146.988 14.542 146.808 14.7033 146.676 14.916C146.544 15.1213 146.478 15.3633 146.478 15.642C146.478 15.9207 146.544 16.1663 146.676 16.379C146.808 16.5843 146.988 16.7457 147.215 16.863C147.45 16.973 147.717 17.028 148.018 17.028C148.319 17.028 148.583 16.973 148.81 16.863C149.045 16.7457 149.228 16.5843 149.36 16.379C149.499 16.1663 149.569 15.9207 149.569 15.642C149.569 15.3633 149.499 15.1213 149.36 14.916C149.228 14.7033 149.045 14.542 148.81 14.432C148.583 14.3147 148.319 14.256 148.018 14.256Z" fill="black"/>
<mask id="path-4-inside-1_810_392" fill="white">
<path d="M100.344 36.2583L88.7064 47.8962C86.802 49.8006 83.7143 49.8006 81.8099 47.8962L70.9998 37.0861L86.0859 22L100.344 36.2583Z"/>
</mask>
<path d="M100.344 36.2583L88.7064 47.8962C86.802 49.8006 83.7143 49.8006 81.8099 47.8962L70.9998 37.0861L86.0859 22L100.344 36.2583Z" fill="white"/>
<path d="M102.068 37.9824L90.4305 49.6203C87.5739 52.4769 82.9424 52.4769 80.0858 49.6203L83.534 46.1721C84.4862 47.1243 86.03 47.1243 86.9822 46.1721L98.6201 34.5342L102.068 37.9824ZM70.9998 37.0861L86.0859 22L70.9998 37.0861ZM86.0859 22L100.344 36.2583L86.0859 22ZM90.4305 49.6203C87.5739 52.4769 82.9424 52.4769 80.0858 49.6203L69.2757 38.8102L72.7239 35.362L83.534 46.1721C84.4862 47.1243 86.03 47.1243 86.9822 46.1721L90.4305 49.6203Z" fill="#DDE0E8" mask="url(#path-4-inside-1_810_392)"/>
</svg>
