<svg width="68" height="22" viewBox="0 0 68 22" fill="none" xmlns="http://www.w3.org/2000/svg">
<path d="M8.625 3.13639V6.54548H0V3.13639H8.625ZM1.67045 2.19345e-05H6.375V12.0171C6.375 12.1989 6.40625 12.3523 6.46875 12.4773C6.53125 12.5966 6.62784 12.6875 6.75852 12.75C6.8892 12.8068 7.05682 12.8352 7.26136 12.8352C7.40341 12.8352 7.56818 12.8182 7.75568 12.7841C7.94886 12.75 8.09091 12.7216 8.18182 12.6989L8.86364 16.0057C8.65341 16.0682 8.35227 16.1449 7.96023 16.2358C7.57386 16.3267 7.11364 16.3864 6.57955 16.4148C5.5 16.4716 4.59375 16.3608 3.8608 16.0824C3.12784 15.7983 2.5767 15.3523 2.20739 14.7443C1.83807 14.1364 1.65909 13.375 1.67045 12.4602V2.19345e-05ZM8.94474 16.2273V3.13639H13.5129V5.62502H13.6493C13.8879 4.70457 14.2658 4.03127 14.7828 3.60514C15.3055 3.179 15.9163 2.96593 16.6152 2.96593C16.8197 2.96593 17.0214 2.98298 17.2203 3.01707C17.4249 3.04548 17.6209 3.08809 17.8084 3.14491V7.15911C17.5754 7.07957 17.2885 7.01991 16.9476 6.98014C16.6067 6.94036 16.3141 6.92048 16.0697 6.92048C15.6095 6.92048 15.1947 7.02559 14.8254 7.23582C14.4618 7.44036 14.1749 7.73014 13.9646 8.10514C13.7544 8.47445 13.6493 8.90911 13.6493 9.40911V16.2273H8.94474ZM21.0131 21.1364C20.4733 21.1364 19.9591 21.0938 19.4705 21.0085C18.9818 20.929 18.5528 20.8182 18.1835 20.6762L19.2062 17.3352C19.5926 17.4716 19.9449 17.5597 20.2631 17.5995C20.5869 17.6392 20.8625 17.6165 21.0898 17.5313C21.3227 17.446 21.4903 17.2841 21.5926 17.0455L21.6949 16.8068L17.0926 3.13639H22.0017L24.1153 12.2046H24.2517L26.3994 3.13639H31.3426L26.5699 17.3182C26.3312 18.0398 25.9847 18.6875 25.5301 19.2614C25.0812 19.8409 24.4903 20.2983 23.7574 20.6335C23.0244 20.9688 22.1097 21.1364 21.0131 21.1364ZM39.6716 7.50002V11.0455H31.4898V7.50002H39.6716ZM47.1781 16.4659C45.7577 16.4659 44.5418 16.1847 43.5304 15.6222C42.519 15.054 41.7435 14.2642 41.2037 13.2529C40.6639 12.2358 40.394 11.0568 40.394 9.71593C40.394 8.37502 40.6639 7.19889 41.2037 6.18752C41.7435 5.17048 42.519 4.3807 43.5304 3.8182C44.5418 3.25002 45.7577 2.96593 47.1781 2.96593C48.5986 2.96593 49.8145 3.25002 50.8259 3.8182C51.8372 4.3807 52.6128 5.17048 53.1526 6.18752C53.6923 7.19889 53.9622 8.37502 53.9622 9.71593C53.9622 11.0568 53.6923 12.2358 53.1526 13.2529C52.6128 14.2642 51.8372 15.054 50.8259 15.6222C49.8145 16.1847 48.5986 16.4659 47.1781 16.4659ZM47.2122 12.9887C47.6099 12.9887 47.9537 12.8551 48.2435 12.5881C48.5332 12.321 48.7577 11.9404 48.9168 11.446C49.0759 10.9517 49.1554 10.3637 49.1554 9.68184C49.1554 8.99434 49.0759 8.40627 48.9168 7.91764C48.7577 7.42332 48.5332 7.04264 48.2435 6.77559C47.9537 6.50854 47.6099 6.37502 47.2122 6.37502C46.7918 6.37502 46.431 6.50854 46.1298 6.77559C45.8287 7.04264 45.5986 7.42332 45.4395 7.91764C45.2804 8.40627 45.2009 8.99434 45.2009 9.68184C45.2009 10.3637 45.2804 10.9517 45.4395 11.446C45.5986 11.9404 45.8287 12.321 46.1298 12.5881C46.431 12.8551 46.7918 12.9887 47.2122 12.9887ZM58.9759 8.86366V16.2273H54.2713V3.13639H58.7372V5.62502H58.8736C59.1577 4.79548 59.6577 4.14491 60.3736 3.67332C61.0952 3.20173 61.9361 2.96593 62.8963 2.96593C63.8224 2.96593 64.6264 3.179 65.3082 3.60514C65.9957 4.02559 66.527 4.60514 66.902 5.34377C67.2827 6.08241 67.4702 6.92616 67.4645 7.87502V16.2273H62.7599V8.86366C62.7656 8.21593 62.6009 7.70741 62.2656 7.33809C61.9361 6.96877 61.4759 6.78411 60.8849 6.78411C60.4986 6.78411 60.1605 6.86934 59.8707 7.03979C59.5866 7.20457 59.3679 7.4432 59.2145 7.7557C59.0611 8.06252 58.9815 8.43184 58.9759 8.86366Z" fill="#FF5A39"/>
</svg>
